<?xml version="1.0" encoding="utf-8"?>
<!-- Generator: Adobe Illustrator 22.0.1, SVG Export Plug-In . SVG Version: 6.00 Build 0)  -->
<svg version="1.1" id="图层_1" xmlns="http://www.w3.org/2000/svg" xmlns:xlink="http://www.w3.org/1999/xlink" x="0px" y="0px"
	 viewBox="0 0 60 48" style="enable-background:new 0 0 60 48;" xml:space="preserve">
<style type="text/css">
	.st0{fill:#D9D9D9;}
	.st1{fill:#404040;}
	.st2{fill:#666666;}
	.st3{fill:none;stroke:#D9D9D9;stroke-miterlimit:10;}
	.st4{fill:#333333;}
	.st5{fill:none;stroke:#D9D9D9;stroke-width:2;stroke-miterlimit:10;}
	.st6{fill:none;stroke:#D9D9D9;stroke-width:2;stroke-miterlimit:10;stroke-dasharray:3,3;}
	.st7{fill:none;stroke:#D9D9D9;stroke-width:2;stroke-miterlimit:10;stroke-dasharray:5.6,5.6;}
	.st8{fill:none;stroke:#D9D9D9;stroke-width:2;stroke-miterlimit:10;stroke-dasharray:6.2857,6.2857;}
	.st9{fill:none;stroke:#D9D9D9;stroke-width:2;stroke-miterlimit:10;stroke-dasharray:5.2,5.2;}
	.st10{fill:none;stroke:#D9D9D9;stroke-miterlimit:10;stroke-dasharray:6.2857,6.2857;}
	.st11{fill:none;stroke:#D9D9D9;stroke-miterlimit:10;stroke-dasharray:3,3;}
	.st12{fill:#9C9C9C;}
	.st13{fill:none;stroke:#D9D9D9;stroke-width:2;stroke-miterlimit:10;stroke-dasharray:6;}
	.st14{fill:none;stroke:#D9D9D9;stroke-width:2;stroke-miterlimit:10;stroke-dasharray:5.1429,5.1429;}
	.st15{fill:none;stroke:#D9D9D9;stroke-width:2;stroke-miterlimit:10;stroke-dasharray:7.3333,7.3333;}
	.st16{fill:none;stroke:#D9D9D9;stroke-miterlimit:10;stroke-dasharray:5.1429,5.1429;}
	.st17{fill:none;stroke:#D9D9D9;stroke-miterlimit:10;stroke-dasharray:7.3333,7.3333;}
	.st18{fill:none;stroke:#D9D9D9;stroke-width:0.5;stroke-miterlimit:10;}
	.st19{fill:#D9D9D9;stroke:#333333;stroke-miterlimit:10;}
	.st20{fill:none;stroke:#D9D9D9;stroke-miterlimit:10;stroke-dasharray:4.8,4.8;}
	.st21{fill:none;stroke:#D9D9D9;stroke-width:2;stroke-miterlimit:10;stroke-dasharray:4.8,4.8;}
	.st22{fill:#9C9C9C;stroke:#D9D9D9;stroke-width:0.5;stroke-miterlimit:10;}
	.st23{fill:none;stroke:#D9D9D9;stroke-miterlimit:10;stroke-dasharray:6.3999,6.3999;}
	.st24{fill:none;stroke:#D9D9D9;stroke-miterlimit:10;stroke-dasharray:6.2,6.2;}
	.st25{fill:none;stroke:#D9D9D9;stroke-miterlimit:10;stroke-dasharray:6,6;}
	.st26{fill:none;stroke:#D9D9D9;stroke-linecap:round;stroke-linejoin:round;stroke-miterlimit:10;}
	.st27{fill:#9F9F9F;}
	.st28{fill:#4D4D4D;}
	.st29{fill:#FFFFFF;}
	.st30{fill:#999999;}
</style>
<path class="st0" d="M50.5,41.7h-41c-2.4,0-4.4-2-4.4-4.4V10c0-2.4,2-4.4,4.4-4.4h41c2.4,0,4.4,2,4.4,4.4v27.3
	C54.9,39.8,52.9,41.7,50.5,41.7z M9.5,6.6c-1.9,0-3.4,1.5-3.4,3.4v27.3c0,1.9,1.5,3.4,3.4,3.4h41c1.9,0,3.4-1.5,3.4-3.4V10
	c0-1.9-1.5-3.4-3.4-3.4H9.5z"/>
<g>
	<g>
		<path class="st0" d="M21.8,17.9c-0.3,0-0.5,0.1-0.7,0.3c-0.2,0.2-0.3,0.4-0.3,0.7c0,0.3,0.1,0.5,0.3,0.7c0.2,0.2,0.4,0.3,0.7,0.3
			c0.3,0,0.5-0.1,0.7-0.3c0.2-0.2,0.3-0.4,0.3-0.7s-0.1-0.5-0.3-0.7C22.3,18,22.1,17.9,21.8,17.9L21.8,17.9z"/>
	</g>
	<path class="st0" d="M32.4,32.2H20.3c-1.4,0-2.5-1.1-2.5-2.5V17.6c0-1.4,1.1-2.5,2.5-2.5h12.1c1.4,0,2.5,1.1,2.5,2.5v2.6l6.5-3.4
		c0.2-0.1,0.3-0.1,0.5,0c0.1,0.1,0.2,0.3,0.2,0.4v11.9c0,0.2-0.1,0.3-0.2,0.4c-0.1,0.1-0.3,0.1-0.5,0l-6.6-3.3v3.4
		C34.9,31.1,33.8,32.2,32.4,32.2z M20.3,16.1c-0.8,0-1.5,0.7-1.5,1.5v12.1c0,0.8,0.7,1.5,1.5,1.5h12.1c0.8,0,1.5-0.7,1.5-1.5v-4.2
		c0-0.2,0.1-0.3,0.2-0.4s0.3-0.1,0.5,0l6.6,3.3V18.1l-6.5,3.4c-0.2,0.1-0.3,0.1-0.5,0c-0.1-0.1-0.2-0.3-0.2-0.4v-3.4
		c0-0.8-0.7-1.5-1.5-1.5H20.3z"/>
</g>
</svg>
