<?xml version="1.0" encoding="utf-8"?>
<!-- Generator: Adobe Illustrator 22.0.1, SVG Export Plug-In . SVG Version: 6.00 Build 0)  -->
<svg version="1.1" id="图层_1" xmlns="http://www.w3.org/2000/svg" xmlns:xlink="http://www.w3.org/1999/xlink" x="0px" y="0px"
	 viewBox="0 0 20 19" style="enable-background:new 0 0 20 19;" xml:space="preserve">
<style type="text/css">
	.st0{fill:#404040;}
	.st1{fill:#666666;}
	.st2{fill:#333333;}
	.st3{fill:none;stroke:#D9D9D9;stroke-width:2;stroke-miterlimit:10;}
	.st4{fill:none;stroke:#D9D9D9;stroke-width:2;stroke-miterlimit:10;stroke-dasharray:3,3;}
	.st5{fill:none;stroke:#D9D9D9;stroke-width:2;stroke-miterlimit:10;stroke-dasharray:5.6,5.6;}
	.st6{fill:none;stroke:#D9D9D9;stroke-width:2;stroke-miterlimit:10;stroke-dasharray:6.2857,6.2857;}
	.st7{fill:none;stroke:#D9D9D9;stroke-width:2;stroke-miterlimit:10;stroke-dasharray:5.2,5.2;}
	.st8{fill:#9C9C9C;}
	.st9{fill:none;stroke:#D9D9D9;stroke-width:2;stroke-miterlimit:10;stroke-dasharray:6;}
	.st10{fill:none;stroke:#D9D9D9;stroke-width:2;stroke-miterlimit:10;stroke-dasharray:5.1429,5.1429;}
	.st11{fill:none;stroke:#D9D9D9;stroke-width:2;stroke-miterlimit:10;stroke-dasharray:7.3333,7.3333;}
	.st12{fill:#D9D9D9;stroke:#333333;stroke-miterlimit:10;}
	.st13{fill:#D9D9D9;}
	.st14{fill:none;stroke:#D9D9D9;stroke-width:2;stroke-miterlimit:10;stroke-dasharray:4.8,4.8;}
	.st15{fill:none;stroke:#D9D9D9;stroke-width:0.5;stroke-miterlimit:10;}
	.st16{fill:#9C9C9C;stroke:#D9D9D9;stroke-width:0.5;stroke-miterlimit:10;}
	.st17{fill:none;stroke:#D9D9D9;stroke-miterlimit:10;}
	.st18{fill:none;stroke:#D9D9D9;stroke-miterlimit:10;stroke-dasharray:6.3999,6.3999;}
	.st19{fill:none;stroke:#D9D9D9;stroke-miterlimit:10;stroke-dasharray:4.8,4.8;}
	.st20{fill:none;stroke:#D9D9D9;stroke-miterlimit:10;stroke-dasharray:6.2,6.2;}
	.st21{fill:none;stroke:#D9D9D9;stroke-miterlimit:10;stroke-dasharray:6,6;}
	.st22{fill:none;stroke:#D9D9D9;stroke-linecap:round;stroke-linejoin:round;stroke-miterlimit:10;}
	.st23{fill:#9F9F9F;}
	.st24{fill:#4D4D4D;}
	.st25{fill:#FFFFFF;}
</style>
<path class="st23" d="M19.8,7.5c-0.1-0.6-0.5-1-1-1h-0.1c-1.4,0-2.4-1.1-2.4-2.4c0-0.5,0.2-1,0.2-1c0.2-0.5,0-1.2-0.5-1.6h0
	l-2.5-1.4h0C13.3,0,13.2,0,12.9,0c-0.4,0-0.8,0.1-1,0.4c-0.3,0.3-1.2,1.1-1.9,1.1S8.3,0.7,8.1,0.4C7.8,0.1,7.4,0,7.1,0
	C6.9,0,6.7,0,6.6,0.1h0L3.9,1.5h0c-0.5,0.4-0.7,1-0.5,1.5c0,0,0.2,0.5,0.2,1c0,1.4-1.1,2.4-2.4,2.4h0c-0.5,0-0.9,0.4-1,1
	c0,0.1-0.2,1.2-0.2,2c0,0.9,0.2,2,0.2,2c0.1,0.6,0.5,1,1,1h0.1c1.4,0,2.4,1.1,2.4,2.4c0,0.5-0.2,1-0.2,1c-0.2,0.5,0,1.2,0.5,1.6h0
	l2.4,1.4h0C6.7,19,6.8,19,7,19c0.4,0,0.8-0.2,1-0.5c0.4-0.4,1.3-1.2,1.9-1.2c0.7,0,1.7,0.9,2,1.2c0.2,0.3,0.6,0.5,1,0.5
	c0.2,0,0.4,0,0.5-0.1h0l2.5-1.4h0c0.5-0.4,0.7-1,0.5-1.5c0,0-0.2-0.5-0.2-1c0-1.4,1.1-2.4,2.4-2.4h0.1c0.5,0,0.9-0.4,1-1
	c0,0,0.2-1.1,0.2-2C20,8.7,19.8,7.6,19.8,7.5z M10,14c-2.5,0-4.5-2-4.5-4.5C5.5,7,7.5,5,10,5c2.5,0,4.5,2,4.5,4.5S12.5,14,10,14z"/>
</svg>
