<?xml version="1.0" encoding="utf-8"?>
<!-- Generator: Adobe Illustrator 22.0.1, SVG Export Plug-In . SVG Version: 6.00 Build 0)  -->
<svg version="1.1" id="图层_1" xmlns="http://www.w3.org/2000/svg" xmlns:xlink="http://www.w3.org/1999/xlink" x="0px" y="0px"
	 viewBox="0 0 20 20" style="enable-background:new 0 0 20 20;" xml:space="preserve">
<style type="text/css">
	.st0{fill:#404040;}
	.st1{fill:#666666;}
	.st2{fill:#333333;}
	.st3{fill:none;stroke:#D9D9D9;stroke-width:2;stroke-miterlimit:10;}
	.st4{fill:none;stroke:#D9D9D9;stroke-width:2;stroke-miterlimit:10;stroke-dasharray:3,3;}
	.st5{fill:none;stroke:#D9D9D9;stroke-width:2;stroke-miterlimit:10;stroke-dasharray:5.6,5.6;}
	.st6{fill:none;stroke:#D9D9D9;stroke-width:2;stroke-miterlimit:10;stroke-dasharray:6.2857,6.2857;}
	.st7{fill:none;stroke:#D9D9D9;stroke-width:2;stroke-miterlimit:10;stroke-dasharray:5.2,5.2;}
	.st8{fill:#9C9C9C;}
	.st9{fill:none;stroke:#D9D9D9;stroke-width:2;stroke-miterlimit:10;stroke-dasharray:6;}
	.st10{fill:none;stroke:#D9D9D9;stroke-width:2;stroke-miterlimit:10;stroke-dasharray:5.1429,5.1429;}
	.st11{fill:none;stroke:#D9D9D9;stroke-width:2;stroke-miterlimit:10;stroke-dasharray:7.3333,7.3333;}
	.st12{fill:#D9D9D9;stroke:#333333;stroke-miterlimit:10;}
	.st13{fill:#D9D9D9;}
	.st14{fill:none;stroke:#D9D9D9;stroke-width:2;stroke-miterlimit:10;stroke-dasharray:4.8,4.8;}
	.st15{fill:none;stroke:#D9D9D9;stroke-width:0.5;stroke-miterlimit:10;}
	.st16{fill:#9C9C9C;stroke:#D9D9D9;stroke-width:0.5;stroke-miterlimit:10;}
	.st17{fill:none;stroke:#D9D9D9;stroke-miterlimit:10;}
	.st18{fill:none;stroke:#D9D9D9;stroke-miterlimit:10;stroke-dasharray:6.3999,6.3999;}
	.st19{fill:none;stroke:#D9D9D9;stroke-miterlimit:10;stroke-dasharray:4.8,4.8;}
	.st20{fill:none;stroke:#D9D9D9;stroke-miterlimit:10;stroke-dasharray:6.2,6.2;}
	.st21{fill:none;stroke:#D9D9D9;stroke-miterlimit:10;stroke-dasharray:6,6;}
	.st22{fill:none;stroke:#D9D9D9;stroke-linecap:round;stroke-linejoin:round;stroke-miterlimit:10;}
	.st23{fill:#9F9F9F;}
	.st24{fill:#4D4D4D;}
	.st25{fill:#FFFFFF;}
</style>
<g>
	<path class="st13" d="M0.3,7l9.3,5.7c0.2,0.1,0.5,0.1,0.7,0L19.6,7c0.3-0.2,0.4-0.6,0.2-1c-0.1-0.1-0.1-0.2-0.2-0.2l-9.3-5.7
		C10.1,0,9.8,0,9.6,0.1L0.3,5.8C0,6-0.1,6.4,0.1,6.7C0.2,6.8,0.2,6.9,0.3,7z"/>
	<path class="st13" d="M18.9,9.4L10,14.9L1.1,9.4C0.7,9.2,0.3,9.3,0.1,9.7S0,10.4,0.3,10.6l9.3,5.7c0.2,0.1,0.5,0.1,0.7,0l9.3-5.7
		c0.3-0.2,0.4-0.6,0.2-1C19.6,9.4,19.2,9.3,18.9,9.4L18.9,9.4z"/>
	<path class="st13" d="M18.9,13.1L10,18.5l-8.9-5.4c-0.3-0.2-0.7-0.1-0.9,0.2C-0.1,13.6,0,14,0.3,14.2l9.3,5.7
		c0.2,0.1,0.5,0.1,0.7,0l9.3-5.7c0.3-0.2,0.4-0.6,0.2-1C19.6,13,19.2,12.9,18.9,13.1L18.9,13.1z"/>
</g>
</svg>
