<?xml version="1.0" encoding="utf-8"?>
<!-- Generator: Adobe Illustrator 22.0.1, SVG Export Plug-In . SVG Version: 6.00 Build 0)  -->
<svg version="1.1" id="图层_1" xmlns="http://www.w3.org/2000/svg" xmlns:xlink="http://www.w3.org/1999/xlink" x="0px" y="0px"
	 viewBox="0 0 60 48" style="enable-background:new 0 0 60 48;" xml:space="preserve">
<style type="text/css">
	.st0{fill:#D9D9D9;}
	.st1{fill:#404040;}
	.st2{fill:#666666;}
	.st3{fill:none;stroke:#D9D9D9;stroke-miterlimit:10;}
	.st4{fill:#333333;}
	.st5{fill:none;stroke:#D9D9D9;stroke-width:2;stroke-miterlimit:10;}
	.st6{fill:none;stroke:#D9D9D9;stroke-width:2;stroke-miterlimit:10;stroke-dasharray:3,3;}
	.st7{fill:none;stroke:#D9D9D9;stroke-width:2;stroke-miterlimit:10;stroke-dasharray:5.6,5.6;}
	.st8{fill:none;stroke:#D9D9D9;stroke-width:2;stroke-miterlimit:10;stroke-dasharray:6.2857,6.2857;}
	.st9{fill:none;stroke:#D9D9D9;stroke-width:2;stroke-miterlimit:10;stroke-dasharray:5.2,5.2;}
	.st10{fill:none;stroke:#D9D9D9;stroke-miterlimit:10;stroke-dasharray:6.2857,6.2857;}
	.st11{fill:none;stroke:#D9D9D9;stroke-miterlimit:10;stroke-dasharray:3,3;}
	.st12{fill:#9C9C9C;}
	.st13{fill:none;stroke:#D9D9D9;stroke-width:2;stroke-miterlimit:10;stroke-dasharray:6;}
	.st14{fill:none;stroke:#D9D9D9;stroke-width:2;stroke-miterlimit:10;stroke-dasharray:5.1429,5.1429;}
	.st15{fill:none;stroke:#D9D9D9;stroke-width:2;stroke-miterlimit:10;stroke-dasharray:7.3333,7.3333;}
	.st16{fill:none;stroke:#D9D9D9;stroke-miterlimit:10;stroke-dasharray:5.1429,5.1429;}
	.st17{fill:none;stroke:#D9D9D9;stroke-miterlimit:10;stroke-dasharray:7.3333,7.3333;}
	.st18{fill:none;stroke:#D9D9D9;stroke-width:0.5;stroke-miterlimit:10;}
	.st19{fill:#D9D9D9;stroke:#333333;stroke-miterlimit:10;}
	.st20{fill:none;stroke:#D9D9D9;stroke-miterlimit:10;stroke-dasharray:4.8,4.8;}
	.st21{fill:none;stroke:#D9D9D9;stroke-width:2;stroke-miterlimit:10;stroke-dasharray:4.8,4.8;}
	.st22{fill:#9C9C9C;stroke:#D9D9D9;stroke-width:0.5;stroke-miterlimit:10;}
	.st23{fill:none;stroke:#D9D9D9;stroke-miterlimit:10;stroke-dasharray:6.3999,6.3999;}
	.st24{fill:none;stroke:#D9D9D9;stroke-miterlimit:10;stroke-dasharray:6.2,6.2;}
	.st25{fill:none;stroke:#D9D9D9;stroke-miterlimit:10;stroke-dasharray:6,6;}
	.st26{fill:none;stroke:#D9D9D9;stroke-linecap:round;stroke-linejoin:round;stroke-miterlimit:10;}
	.st27{fill:#9F9F9F;}
	.st28{fill:#4D4D4D;}
	.st29{fill:#FFFFFF;}
	.st30{fill:#999999;}
</style>
<path class="st0" d="M30,8.4c0.2,0,0.7,0.1,0.9,0.6l3.4,7.2c0.5,1.1,1.5,1.8,2.7,2l7.7,1.2c0.6,0.1,0.8,0.5,0.9,0.7
	c0.1,0.2,0.1,0.6-0.2,1.1L39.6,27c-0.8,0.8-1.1,1.9-0.9,3l1.2,8.3c0.1,0.4-0.1,0.7-0.2,0.8c-0.2,0.2-0.5,0.4-0.8,0.4
	c-0.1,0-0.4-0.1-0.5-0.1l-6.5-3.6c-0.6-0.4-1.3-0.5-1.9-0.5s-1.3,0.1-1.8,0.5l-6.5,3.6c-0.1,0.1-0.4,0.1-0.5,0.1
	c-0.3,0-0.6-0.1-0.8-0.4c-0.1-0.1-0.3-0.4-0.2-0.8l1.3-8.2c0.2-1.1-0.1-2.2-0.9-3l-5.9-6c-0.4-0.4-0.3-0.9-0.2-1.1
	c0.1-0.2,0.3-0.6,0.9-0.7l7.7-1.2c1.2-0.2,2.2-0.9,2.7-2L29.1,9C29.3,8.5,29.8,8.4,30,8.4 M30,7c-0.9,0-1.8,0.5-2.2,1.4l-3.4,7.2
	c-0.3,0.6-0.9,1.1-1.6,1.2L15.1,18c-2,0.4-2.8,2.8-1.4,4.2l5.7,5.9c0.5,0.5,0.7,1.1,0.6,1.8l-1.3,8.2c-0.2,1.6,1,2.9,2.4,2.9
	c0.4,0,0.8-0.1,1.2-0.3l6.5-3.6c0.4-0.2,0.8-0.3,1.2-0.3c0.4,0,0.9,0.1,1.2,0.3l6.5,3.6c0.4,0.2,0.8,0.3,1.2,0.3
	c1.4,0,2.7-1.3,2.4-2.9L40,29.9c-0.1-0.6,0.1-1.3,0.6-1.8l5.7-6c1.4-1.4,0.6-3.8-1.4-4.2l-7.7-1.2c-0.7-0.1-1.3-0.6-1.6-1.2
	l-3.3-7.1C31.8,7.5,30.9,7,30,7z"/>
</svg>
