<?xml version="1.0" encoding="utf-8"?>
<!-- Generator: Adobe Illustrator 22.0.1, SVG Export Plug-In . SVG Version: 6.00 Build 0)  -->
<svg version="1.1" id="图层_1" xmlns="http://www.w3.org/2000/svg" xmlns:xlink="http://www.w3.org/1999/xlink" x="0px" y="0px"
	 viewBox="0 0 60 48" style="enable-background:new 0 0 60 48;" xml:space="preserve">
<style type="text/css">
	.st0{fill:#D9D9D9;}
	.st1{fill:#404040;}
	.st2{fill:#666666;}
	.st3{fill:none;stroke:#D9D9D9;stroke-miterlimit:10;}
	.st4{fill:#333333;}
	.st5{fill:none;stroke:#D9D9D9;stroke-width:2;stroke-miterlimit:10;}
	.st6{fill:none;stroke:#D9D9D9;stroke-width:2;stroke-miterlimit:10;stroke-dasharray:3,3;}
	.st7{fill:none;stroke:#D9D9D9;stroke-width:2;stroke-miterlimit:10;stroke-dasharray:5.6,5.6;}
	.st8{fill:none;stroke:#D9D9D9;stroke-width:2;stroke-miterlimit:10;stroke-dasharray:6.2857,6.2857;}
	.st9{fill:none;stroke:#D9D9D9;stroke-width:2;stroke-miterlimit:10;stroke-dasharray:5.2,5.2;}
	.st10{fill:none;stroke:#D9D9D9;stroke-miterlimit:10;stroke-dasharray:6.2857,6.2857;}
	.st11{fill:none;stroke:#D9D9D9;stroke-miterlimit:10;stroke-dasharray:3,3;}
	.st12{fill:#9C9C9C;}
	.st13{fill:none;stroke:#D9D9D9;stroke-width:2;stroke-miterlimit:10;stroke-dasharray:6;}
	.st14{fill:none;stroke:#D9D9D9;stroke-width:2;stroke-miterlimit:10;stroke-dasharray:5.1429,5.1429;}
	.st15{fill:none;stroke:#D9D9D9;stroke-width:2;stroke-miterlimit:10;stroke-dasharray:7.3333,7.3333;}
	.st16{fill:none;stroke:#D9D9D9;stroke-miterlimit:10;stroke-dasharray:5.1429,5.1429;}
	.st17{fill:none;stroke:#D9D9D9;stroke-miterlimit:10;stroke-dasharray:7.3333,7.3333;}
	.st18{fill:none;stroke:#D9D9D9;stroke-width:0.5;stroke-miterlimit:10;}
	.st19{fill:#D9D9D9;stroke:#333333;stroke-miterlimit:10;}
	.st20{fill:none;stroke:#D9D9D9;stroke-miterlimit:10;stroke-dasharray:4.8,4.8;}
	.st21{fill:none;stroke:#D9D9D9;stroke-width:2;stroke-miterlimit:10;stroke-dasharray:4.8,4.8;}
	.st22{fill:#9C9C9C;stroke:#D9D9D9;stroke-width:0.5;stroke-miterlimit:10;}
	.st23{fill:none;stroke:#D9D9D9;stroke-miterlimit:10;stroke-dasharray:6.3999,6.3999;}
	.st24{fill:none;stroke:#D9D9D9;stroke-miterlimit:10;stroke-dasharray:6.2,6.2;}
	.st25{fill:none;stroke:#D9D9D9;stroke-miterlimit:10;stroke-dasharray:6,6;}
	.st26{fill:none;stroke:#D9D9D9;stroke-linecap:round;stroke-linejoin:round;stroke-miterlimit:10;}
	.st27{fill:#9F9F9F;}
	.st28{fill:#4D4D4D;}
	.st29{fill:#FFFFFF;}
	.st30{fill:#999999;}
</style>
<path class="st2" d="M58,0H2C0.9,0,0,0.9,0,2v44c0,1.1,0.9,2,2,2h56c1.1,0,2-0.9,2-2V2C60,0.9,59.1,0,58,0z M13.5,1.6
	c0.8,0,1.5,0.7,1.5,1.5s-0.7,1.5-1.5,1.5S12,3.9,12,3.1S12.7,1.6,13.5,1.6z M8.5,1.6c0.8,0,1.5,0.7,1.5,1.5S9.4,4.6,8.5,4.6
	S7,3.9,7,3.1S7.7,1.6,8.5,1.6z M3.5,1.6C4.4,1.6,5,2.3,5,3.1S4.4,4.6,3.5,4.6S2,3.9,2,3.1S2.7,1.6,3.5,1.6z M58,46H2V6h56V46z"/>
<rect x="11.7" y="9" class="st3" width="15" height="34"/>
<rect x="33.3" y="9" class="st3" width="15" height="34"/>
<g>
	<path class="st0" d="M19.2,22.1L15.3,26c-0.1,0.1-0.3,0.1-0.4,0l0,0c-0.1-0.1-0.1-0.3,0-0.4l3.9-3.9c0.1-0.1,0.3-0.1,0.4,0l0,0
		C19.3,21.9,19.3,22,19.2,22.1z"/>
	<path class="st0" d="M23.2,21.9L15.1,30c-0.1,0.1-0.3,0.1-0.4,0l0,0c-0.1-0.1-0.1-0.3,0-0.4l8.1-8.1c0.1-0.1,0.3-0.1,0.4,0h0
		C23.3,21.6,23.3,21.8,23.2,21.9z"/>
	<path class="st0" d="M23.7,25.2l-5.3,5.3c-0.1,0.1-0.3,0.1-0.4,0l0,0c-0.1-0.1-0.1-0.3,0-0.4l5.3-5.3c0.1-0.1,0.3-0.1,0.4,0l0,0
		C23.8,24.9,23.8,25.1,23.7,25.2z"/>
</g>
<g>
	<path class="st0" d="M40.8,22.1L36.9,26c-0.1,0.1-0.3,0.1-0.4,0v0c-0.1-0.1-0.1-0.3,0-0.4l3.9-3.9c0.1-0.1,0.3-0.1,0.4,0l0,0
		C40.9,21.9,40.9,22,40.8,22.1z"/>
	<path class="st0" d="M44.8,21.9L36.7,30c-0.1,0.1-0.3,0.1-0.4,0l0,0c-0.1-0.1-0.1-0.3,0-0.4l8.1-8.1c0.1-0.1,0.3-0.1,0.4,0l0,0
		C44.9,21.6,44.9,21.8,44.8,21.9z"/>
	<path class="st0" d="M45.3,25.2L40,30.5c-0.1,0.1-0.3,0.1-0.4,0l0,0c-0.1-0.1-0.1-0.3,0-0.4l5.3-5.3c0.1-0.1,0.3-0.1,0.4,0l0,0
		C45.4,24.9,45.4,25.1,45.3,25.2z"/>
</g>
</svg>
