<?xml version="1.0" encoding="utf-8"?>
<!-- Generator: Adobe Illustrator 22.0.1, SVG Export Plug-In . SVG Version: 6.00 Build 0)  -->
<svg version="1.1" id="图层_1" xmlns="http://www.w3.org/2000/svg" xmlns:xlink="http://www.w3.org/1999/xlink" x="0px" y="0px"
	 viewBox="0 0 20 20" style="enable-background:new 0 0 20 20;" xml:space="preserve">
<style type="text/css">
	.st0{fill:#D9D9D9;}
	.st1{fill:#404040;}
	.st2{fill:#666666;}
	.st3{fill:none;stroke:#D9D9D9;stroke-miterlimit:10;}
	.st4{fill:#333333;}
	.st5{fill:none;stroke:#D9D9D9;stroke-width:2;stroke-miterlimit:10;}
	.st6{fill:none;stroke:#D9D9D9;stroke-width:2;stroke-miterlimit:10;stroke-dasharray:3,3;}
	.st7{fill:none;stroke:#D9D9D9;stroke-width:2;stroke-miterlimit:10;stroke-dasharray:5.6,5.6;}
	.st8{fill:none;stroke:#D9D9D9;stroke-width:2;stroke-miterlimit:10;stroke-dasharray:6.2857,6.2857;}
	.st9{fill:none;stroke:#D9D9D9;stroke-width:2;stroke-miterlimit:10;stroke-dasharray:5.2,5.2;}
	.st10{fill:none;stroke:#D9D9D9;stroke-miterlimit:10;stroke-dasharray:6.2857,6.2857;}
	.st11{fill:none;stroke:#D9D9D9;stroke-miterlimit:10;stroke-dasharray:3,3;}
	.st12{fill:#9C9C9C;}
	.st13{fill:none;stroke:#D9D9D9;stroke-width:2;stroke-miterlimit:10;stroke-dasharray:6;}
	.st14{fill:none;stroke:#D9D9D9;stroke-width:2;stroke-miterlimit:10;stroke-dasharray:5.1429,5.1429;}
	.st15{fill:none;stroke:#D9D9D9;stroke-width:2;stroke-miterlimit:10;stroke-dasharray:7.3333,7.3333;}
	.st16{fill:none;stroke:#D9D9D9;stroke-miterlimit:10;stroke-dasharray:5.1429,5.1429;}
	.st17{fill:none;stroke:#D9D9D9;stroke-miterlimit:10;stroke-dasharray:7.3333,7.3333;}
	.st18{fill:none;stroke:#D9D9D9;stroke-width:0.5;stroke-miterlimit:10;}
	.st19{fill:#D9D9D9;stroke:#333333;stroke-miterlimit:10;}
	.st20{fill:none;stroke:#D9D9D9;stroke-miterlimit:10;stroke-dasharray:4.8,4.8;}
	.st21{fill:none;stroke:#D9D9D9;stroke-width:2;stroke-miterlimit:10;stroke-dasharray:4.8,4.8;}
	.st22{fill:#9C9C9C;stroke:#D9D9D9;stroke-width:0.5;stroke-miterlimit:10;}
	.st23{fill:none;stroke:#D9D9D9;stroke-miterlimit:10;stroke-dasharray:6.3999,6.3999;}
	.st24{fill:none;stroke:#D9D9D9;stroke-miterlimit:10;stroke-dasharray:6.2,6.2;}
	.st25{fill:none;stroke:#D9D9D9;stroke-miterlimit:10;stroke-dasharray:6,6;}
	.st26{fill:none;stroke:#D9D9D9;stroke-linecap:round;stroke-linejoin:round;stroke-miterlimit:10;}
	.st27{fill:#9F9F9F;}
	.st28{fill:#4D4D4D;}
	.st29{fill:#FFFFFF;}
	.st30{fill:#999999;}
</style>
<g>
	<path class="st0" d="M13.1,10.5c1.8,0,3.2,1.4,3.2,3.2c0,0.4-0.1,0.8-0.3,1.1l1.8,1.8c0.9-0.8,1.7-1.8,2.1-3
		c-1.1-2.8-3.8-4.7-6.9-4.7c-0.9,0-1.7,0.2-2.5,0.4l1.4,1.4C12.3,10.6,12.7,10.5,13.1,10.5 M7.5,9.5l0.7,0.7l0.3,0.3
		c-1.1,0.8-1.9,1.9-2.3,3.2c1.1,2.8,3.8,4.7,6.9,4.7c0.9,0,1.9-0.2,2.8-0.5l0.3,0.3l0.9,0.9l0.8-0.8L8.3,8.7L7.5,9.5z M10.3,12.3
		l0.9,0.9l0,0.4c0,1.1,0.8,1.9,1.9,1.9c0.1,0,0.3,0,0.4-0.1l0.9,0.9c-0.4,0.3-0.9,0.4-1.4,0.4c-1.8,0-3.2-1.4-3.2-3.2
		C10,13.2,10.1,12.7,10.3,12.3 M13,11.8l2,2v-0.1C14.9,12.5,14.1,11.7,13,11.8C13.1,11.8,13.1,11.8,13,11.8"/>
	<path class="st0" d="M17.6,19.6l-1.2-1.2c-0.2-0.2-0.2-0.6,0-0.8l0,0c0.2-0.2,0.6-0.2,0.8,0l1.2,1.2c0.2,0.2,0.2,0.6,0,0.8l0,0
		C18.2,19.8,17.8,19.8,17.6,19.6z"/>
	<path class="st0" d="M8.4,10.4L7.2,9.2C7,9,7,8.6,7.2,8.4l0,0c0.2-0.2,0.6-0.2,0.8,0l1.2,1.2c0.2,0.2,0.2,0.6,0,0.8l0,0
		C9,10.6,8.6,10.6,8.4,10.4z"/>
</g>
<path class="st0" d="M9,19.7H2c-1.1,0-2-0.9-2-2V2c0-1.1,0.9-2,2-2h15.6c1.1,0,2,0.9,2,2v7.7c0,0.3-0.2,0.5-0.5,0.5
	s-0.5-0.2-0.5-0.5V2c0-0.5-0.4-1-1-1H2C1.4,1,1,1.4,1,2v15.8c0,0.5,0.4,1,1,1h7c0.3,0,0.5,0.2,0.5,0.5S9.2,19.7,9,19.7z"/>
</svg>
