<?xml version="1.0" encoding="utf-8"?>
<!-- Generator: Adobe Illustrator 22.0.1, SVG Export Plug-In . SVG Version: 6.00 Build 0)  -->
<svg version="1.1" id="图层_1" xmlns="http://www.w3.org/2000/svg" xmlns:xlink="http://www.w3.org/1999/xlink" x="0px" y="0px"
	 viewBox="0 0 20 20" style="enable-background:new 0 0 20 20;" xml:space="preserve">
<style type="text/css">
	.st0{fill:#D9D9D9;}
	.st1{fill:#404040;}
	.st2{fill:#666666;}
	.st3{fill:none;stroke:#D9D9D9;stroke-miterlimit:10;}
	.st4{fill:#333333;}
	.st5{fill:none;stroke:#D9D9D9;stroke-width:2;stroke-miterlimit:10;}
	.st6{fill:none;stroke:#D9D9D9;stroke-width:2;stroke-miterlimit:10;stroke-dasharray:3,3;}
	.st7{fill:none;stroke:#D9D9D9;stroke-width:2;stroke-miterlimit:10;stroke-dasharray:5.6,5.6;}
	.st8{fill:none;stroke:#D9D9D9;stroke-width:2;stroke-miterlimit:10;stroke-dasharray:6.2857,6.2857;}
	.st9{fill:none;stroke:#D9D9D9;stroke-width:2;stroke-miterlimit:10;stroke-dasharray:5.2,5.2;}
	.st10{fill:none;stroke:#D9D9D9;stroke-miterlimit:10;stroke-dasharray:6.2857,6.2857;}
	.st11{fill:none;stroke:#D9D9D9;stroke-miterlimit:10;stroke-dasharray:3,3;}
	.st12{fill:#9C9C9C;}
	.st13{fill:none;stroke:#D9D9D9;stroke-width:2;stroke-miterlimit:10;stroke-dasharray:6;}
	.st14{fill:none;stroke:#D9D9D9;stroke-width:2;stroke-miterlimit:10;stroke-dasharray:5.1429,5.1429;}
	.st15{fill:none;stroke:#D9D9D9;stroke-width:2;stroke-miterlimit:10;stroke-dasharray:7.3333,7.3333;}
	.st16{fill:none;stroke:#D9D9D9;stroke-miterlimit:10;stroke-dasharray:5.1429,5.1429;}
	.st17{fill:none;stroke:#D9D9D9;stroke-miterlimit:10;stroke-dasharray:7.3333,7.3333;}
	.st18{fill:none;stroke:#D9D9D9;stroke-width:0.5;stroke-miterlimit:10;}
	.st19{fill:#D9D9D9;stroke:#333333;stroke-miterlimit:10;}
	.st20{fill:none;stroke:#D9D9D9;stroke-miterlimit:10;stroke-dasharray:4.8,4.8;}
	.st21{fill:none;stroke:#D9D9D9;stroke-width:2;stroke-miterlimit:10;stroke-dasharray:4.8,4.8;}
	.st22{fill:#9C9C9C;stroke:#D9D9D9;stroke-width:0.5;stroke-miterlimit:10;}
	.st23{fill:none;stroke:#D9D9D9;stroke-miterlimit:10;stroke-dasharray:6.3999,6.3999;}
	.st24{fill:none;stroke:#D9D9D9;stroke-miterlimit:10;stroke-dasharray:6.2,6.2;}
	.st25{fill:none;stroke:#D9D9D9;stroke-miterlimit:10;stroke-dasharray:6,6;}
	.st26{fill:none;stroke:#D9D9D9;stroke-linecap:round;stroke-linejoin:round;stroke-miterlimit:10;}
	.st27{fill:#9F9F9F;}
	.st28{fill:#4D4D4D;}
	.st29{fill:#FFFFFF;}
	.st30{fill:#999999;}
</style>
<g>
	<path class="st30" d="M1,19.5l0-19C1,0.2,0.7,0,0.5,0h0C0.2,0,0,0.2,0,0.5l0,19C0,19.8,0.2,20,0.5,20h0C0.7,20,1,19.8,1,19.5z"/>
	<path class="st30" d="M13.2,10.8c-3.1,0-5.7,1.9-6.8,4.6c1.1,2.7,3.7,4.6,6.8,4.6c3.1,0,5.7-1.9,6.8-4.6
		C18.9,12.7,16.3,10.8,13.2,10.8z M13.2,18.5c-1.7,0-3.1-1.4-3.1-3.1s1.4-3.1,3.1-3.1s3.1,1.4,3.1,3.1S14.9,18.5,13.2,18.5z
		 M13.2,13.6c-1,0-1.8,0.8-1.8,1.8s0.8,1.8,1.8,1.8s1.8-0.8,1.8-1.8S14.3,13.6,13.2,13.6z"/>
	<g>
		<path class="st30" d="M4.5,15.8v3.7C4.5,19.8,4.8,20,5,20c0.3,0,0.5-0.2,0.5-0.5v-2C5.1,17,4.8,16.4,4.5,15.8z"/>
		<path class="st30" d="M5.5,13.3V0.5C5.5,0.2,5.3,0,5,0C4.8,0,4.5,0.2,4.5,0.5V15C4.8,14.4,5.1,13.8,5.5,13.3z"/>
	</g>
	<g>
		<path class="st30" d="M10.1,9.9V0.5C10.1,0.2,9.8,0,9.6,0S9.1,0.2,9.1,0.5v9.8C9.4,10.1,9.7,10,10.1,9.9z"/>
	</g>
	<g>
		<path class="st30" d="M14.6,9.4v-9c0-0.3-0.2-0.5-0.5-0.5c-0.3,0-0.5,0.2-0.5,0.5v8.9C14,9.4,14.3,9.4,14.6,9.4z"/>
	</g>
	<g>
		<path class="st30" d="M19.1,11.4V0.5c0-0.3-0.2-0.5-0.5-0.5c-0.3,0-0.5,0.2-0.5,0.5v10.2C18.5,10.9,18.8,11.1,19.1,11.4z"/>
	</g>
</g>
</svg>
