<?xml version="1.0" encoding="utf-8"?>
<!-- Generator: Adobe Illustrator 22.0.1, SVG Export Plug-In . SVG Version: 6.00 Build 0)  -->
<svg version="1.1" id="图层_1" xmlns="http://www.w3.org/2000/svg" xmlns:xlink="http://www.w3.org/1999/xlink" x="0px" y="0px"
	 viewBox="0 0 20 20" style="enable-background:new 0 0 20 20;" xml:space="preserve">
<style type="text/css">
	.st0{fill:#D9D9D9;}
	.st1{fill:#404040;}
	.st2{fill:#666666;}
	.st3{fill:none;stroke:#D9D9D9;stroke-miterlimit:10;}
	.st4{fill:#333333;}
	.st5{fill:none;stroke:#D9D9D9;stroke-width:2;stroke-miterlimit:10;}
	.st6{fill:none;stroke:#D9D9D9;stroke-width:2;stroke-miterlimit:10;stroke-dasharray:3,3;}
	.st7{fill:none;stroke:#D9D9D9;stroke-width:2;stroke-miterlimit:10;stroke-dasharray:5.6,5.6;}
	.st8{fill:none;stroke:#D9D9D9;stroke-width:2;stroke-miterlimit:10;stroke-dasharray:6.2857,6.2857;}
	.st9{fill:none;stroke:#D9D9D9;stroke-width:2;stroke-miterlimit:10;stroke-dasharray:5.2,5.2;}
	.st10{fill:none;stroke:#D9D9D9;stroke-miterlimit:10;stroke-dasharray:6.2857,6.2857;}
	.st11{fill:none;stroke:#D9D9D9;stroke-miterlimit:10;stroke-dasharray:3,3;}
	.st12{fill:#9C9C9C;}
	.st13{fill:none;stroke:#D9D9D9;stroke-width:2;stroke-miterlimit:10;stroke-dasharray:6;}
	.st14{fill:none;stroke:#D9D9D9;stroke-width:2;stroke-miterlimit:10;stroke-dasharray:5.1429,5.1429;}
	.st15{fill:none;stroke:#D9D9D9;stroke-width:2;stroke-miterlimit:10;stroke-dasharray:7.3333,7.3333;}
	.st16{fill:none;stroke:#D9D9D9;stroke-miterlimit:10;stroke-dasharray:5.1429,5.1429;}
	.st17{fill:none;stroke:#D9D9D9;stroke-miterlimit:10;stroke-dasharray:7.3333,7.3333;}
	.st18{fill:none;stroke:#D9D9D9;stroke-width:0.5;stroke-miterlimit:10;}
	.st19{fill:#D9D9D9;stroke:#333333;stroke-miterlimit:10;}
	.st20{fill:none;stroke:#D9D9D9;stroke-miterlimit:10;stroke-dasharray:4.8,4.8;}
	.st21{fill:none;stroke:#D9D9D9;stroke-width:2;stroke-miterlimit:10;stroke-dasharray:4.8,4.8;}
	.st22{fill:#9C9C9C;stroke:#D9D9D9;stroke-width:0.5;stroke-miterlimit:10;}
	.st23{fill:none;stroke:#D9D9D9;stroke-miterlimit:10;stroke-dasharray:6.3999,6.3999;}
	.st24{fill:none;stroke:#D9D9D9;stroke-miterlimit:10;stroke-dasharray:6.2,6.2;}
	.st25{fill:none;stroke:#D9D9D9;stroke-miterlimit:10;stroke-dasharray:6,6;}
	.st26{fill:none;stroke:#D9D9D9;stroke-linecap:round;stroke-linejoin:round;stroke-miterlimit:10;}
	.st27{fill:#9F9F9F;}
	.st28{fill:#4D4D4D;}
	.st29{fill:#FFFFFF;}
	.st30{fill:#999999;}
</style>
<g>
	<path class="st30" d="M6.2,6.4c0.2-0.2,0.5-0.2,0.7,0L9.5,9C9.2,9.2,8.9,9.4,8.6,9.6L6.2,7.1C6,6.9,6,6.6,6.2,6.4z"/>
	<path class="st30" d="M6.2,19.6c0.2,0.2,0.5,0.2,0.7,0L9.5,17c-0.3-0.2-0.6-0.3-0.9-0.5l-2.4,2.4C6,19.1,6,19.4,6.2,19.6z"/>
	<path class="st30" d="M19.4,19.6c-0.2,0.2-0.5,0.2-0.7,0L16.1,17c0.3-0.2,0.6-0.3,0.9-0.5l2.4,2.4C19.6,19.1,19.6,19.4,19.4,19.6z"
		/>
	<path class="st30" d="M4.8,19.7H2c-1.1,0-2-0.9-2-2V2c0-1.1,0.9-2,2-2h15.6c1.1,0,2,0.9,2,2v2.9c0,0.3-0.2,0.5-0.5,0.5
		s-0.5-0.2-0.5-0.5V2c0-0.5-0.4-1-1-1H2C1.4,1,1,1.4,1,2v15.8c0,0.5,0.4,1,1,1h2.8c0.3,0,0.5,0.2,0.5,0.5S5.1,19.7,4.8,19.7z"/>
	<path class="st30" d="M12.8,9.6c-2.3,0-4.2,1.4-5,3.4c0.8,2,2.7,3.4,5,3.4c2.3,0,4.2-1.4,5-3.4C17,11,15.1,9.6,12.8,9.6z
		 M12.8,15.3c-1.2,0-2.3-1-2.3-2.3s1-2.3,2.3-2.3s2.3,1,2.3,2.3S14.1,15.3,12.8,15.3z M12.8,11.7c-0.7,0-1.4,0.6-1.4,1.4
		c0,0.7,0.6,1.4,1.4,1.4s1.4-0.6,1.4-1.4C14.2,12.3,13.6,11.7,12.8,11.7z"/>
	<path class="st30" d="M19.4,6.4c-0.2-0.2-0.5-0.2-0.7,0L16.1,9c0.3,0.2,0.6,0.3,0.9,0.5l2.4-2.4C19.6,6.9,19.6,6.6,19.4,6.4z"/>
</g>
</svg>
