<?xml version="1.0" encoding="utf-8"?>
<!-- Generator: Adobe Illustrator 22.0.1, SVG Export Plug-In . SVG Version: 6.00 Build 0)  -->
<svg version="1.1" id="图层_1" xmlns="http://www.w3.org/2000/svg" xmlns:xlink="http://www.w3.org/1999/xlink" x="0px" y="0px"
	 viewBox="0 0 20 20" style="enable-background:new 0 0 20 20;" xml:space="preserve">
<style type="text/css">
	.st0{fill:#D9D9D9;}
	.st1{fill:#404040;}
	.st2{fill:#666666;}
	.st3{fill:none;stroke:#D9D9D9;stroke-miterlimit:10;}
	.st4{fill:#333333;}
	.st5{fill:none;stroke:#D9D9D9;stroke-width:2;stroke-miterlimit:10;}
	.st6{fill:none;stroke:#D9D9D9;stroke-width:2;stroke-miterlimit:10;stroke-dasharray:3,3;}
	.st7{fill:none;stroke:#D9D9D9;stroke-width:2;stroke-miterlimit:10;stroke-dasharray:5.6,5.6;}
	.st8{fill:none;stroke:#D9D9D9;stroke-width:2;stroke-miterlimit:10;stroke-dasharray:6.2857,6.2857;}
	.st9{fill:none;stroke:#D9D9D9;stroke-width:2;stroke-miterlimit:10;stroke-dasharray:5.2,5.2;}
	.st10{fill:none;stroke:#D9D9D9;stroke-miterlimit:10;stroke-dasharray:6.2857,6.2857;}
	.st11{fill:none;stroke:#D9D9D9;stroke-miterlimit:10;stroke-dasharray:3,3;}
	.st12{fill:#9C9C9C;}
	.st13{fill:none;stroke:#D9D9D9;stroke-width:2;stroke-miterlimit:10;stroke-dasharray:6;}
	.st14{fill:none;stroke:#D9D9D9;stroke-width:2;stroke-miterlimit:10;stroke-dasharray:5.1429,5.1429;}
	.st15{fill:none;stroke:#D9D9D9;stroke-width:2;stroke-miterlimit:10;stroke-dasharray:7.3333,7.3333;}
	.st16{fill:none;stroke:#D9D9D9;stroke-miterlimit:10;stroke-dasharray:5.1429,5.1429;}
	.st17{fill:none;stroke:#D9D9D9;stroke-miterlimit:10;stroke-dasharray:7.3333,7.3333;}
	.st18{fill:none;stroke:#D9D9D9;stroke-width:0.5;stroke-miterlimit:10;}
	.st19{fill:#D9D9D9;stroke:#333333;stroke-miterlimit:10;}
	.st20{fill:none;stroke:#D9D9D9;stroke-miterlimit:10;stroke-dasharray:4.8,4.8;}
	.st21{fill:none;stroke:#D9D9D9;stroke-width:2;stroke-miterlimit:10;stroke-dasharray:4.8,4.8;}
	.st22{fill:#9C9C9C;stroke:#D9D9D9;stroke-width:0.5;stroke-miterlimit:10;}
	.st23{fill:none;stroke:#D9D9D9;stroke-miterlimit:10;stroke-dasharray:6.3999,6.3999;}
	.st24{fill:none;stroke:#D9D9D9;stroke-miterlimit:10;stroke-dasharray:6.2,6.2;}
	.st25{fill:none;stroke:#D9D9D9;stroke-miterlimit:10;stroke-dasharray:6,6;}
	.st26{fill:none;stroke:#D9D9D9;stroke-linecap:round;stroke-linejoin:round;stroke-miterlimit:10;}
	.st27{fill:#9F9F9F;}
	.st28{fill:#4D4D4D;}
	.st29{fill:#FFFFFF;}
	.st30{fill:#999999;}
</style>
<path class="st30" d="M17.9,8.9l-3.4,2.2c0-0.7-0.3-1.3-0.8-1.7c1.1-0.7,1.9-1.9,1.9-3.4c0-2.2-1.8-3.9-3.9-3.9S7.7,3.9,7.7,6.1
	c0,1.1,0.5,2.1,1.2,2.8H6.9c0.5-0.6,0.9-1.4,0.9-2.2c0-1.9-1.5-3.4-3.4-3.4C2.5,3.3,1,4.8,1,6.6c0,1,0.5,1.9,1.2,2.5
	C1.5,9.5,1,10.3,1,11.1v4.5c0,1.2,1,2.2,2.2,2.2h9c1.2,0,2.2-1,2.2-2.2l3.4,2.2c0.6,0,1.1-0.5,1.1-1.1V10C19,9.4,18.5,8.9,17.9,8.9
	L17.9,8.9z M4.4,8.9c-1.2,0-2.2-1-2.2-2.2s1-2.2,2.2-2.2s2.2,1,2.2,2.2S5.6,8.9,4.4,8.9z M11.7,8.9c-1.6,0-2.8-1.3-2.8-2.8
	c0-1.6,1.3-2.8,2.8-2.8s2.8,1.3,2.8,2.8C14.5,7.6,13.2,8.9,11.7,8.9z"/>
</svg>
