<?xml version="1.0" encoding="utf-8"?>
<!-- Generator: Adobe Illustrator 22.0.1, SVG Export Plug-In . SVG Version: 6.00 Build 0)  -->
<svg version="1.1" id="图层_1" xmlns="http://www.w3.org/2000/svg" xmlns:xlink="http://www.w3.org/1999/xlink" x="0px" y="0px"
	 viewBox="0 0 60 48" style="enable-background:new 0 0 60 48;" xml:space="preserve">
<style type="text/css">
	.st0{fill:#D9D9D9;}
	.st1{fill:#404040;}
	.st2{fill:#666666;}
	.st3{fill:none;stroke:#D9D9D9;stroke-miterlimit:10;}
	.st4{fill:#333333;}
	.st5{fill:none;stroke:#D9D9D9;stroke-width:2;stroke-miterlimit:10;}
	.st6{fill:none;stroke:#D9D9D9;stroke-width:2;stroke-miterlimit:10;stroke-dasharray:3,3;}
	.st7{fill:none;stroke:#D9D9D9;stroke-width:2;stroke-miterlimit:10;stroke-dasharray:5.6,5.6;}
	.st8{fill:none;stroke:#D9D9D9;stroke-width:2;stroke-miterlimit:10;stroke-dasharray:6.2857,6.2857;}
	.st9{fill:none;stroke:#D9D9D9;stroke-width:2;stroke-miterlimit:10;stroke-dasharray:5.2,5.2;}
	.st10{fill:none;stroke:#D9D9D9;stroke-miterlimit:10;stroke-dasharray:6.2857,6.2857;}
	.st11{fill:none;stroke:#D9D9D9;stroke-miterlimit:10;stroke-dasharray:3,3;}
	.st12{fill:#9C9C9C;}
	.st13{fill:none;stroke:#D9D9D9;stroke-width:2;stroke-miterlimit:10;stroke-dasharray:6;}
	.st14{fill:none;stroke:#D9D9D9;stroke-width:2;stroke-miterlimit:10;stroke-dasharray:5.1429,5.1429;}
	.st15{fill:none;stroke:#D9D9D9;stroke-width:2;stroke-miterlimit:10;stroke-dasharray:7.3333,7.3333;}
	.st16{fill:none;stroke:#D9D9D9;stroke-miterlimit:10;stroke-dasharray:5.1429,5.1429;}
	.st17{fill:none;stroke:#D9D9D9;stroke-miterlimit:10;stroke-dasharray:7.3333,7.3333;}
	.st18{fill:none;stroke:#D9D9D9;stroke-width:0.5;stroke-miterlimit:10;}
	.st19{fill:#D9D9D9;stroke:#333333;stroke-miterlimit:10;}
	.st20{fill:none;stroke:#D9D9D9;stroke-miterlimit:10;stroke-dasharray:4.8,4.8;}
	.st21{fill:none;stroke:#D9D9D9;stroke-width:2;stroke-miterlimit:10;stroke-dasharray:4.8,4.8;}
	.st22{fill:#9C9C9C;stroke:#D9D9D9;stroke-width:0.5;stroke-miterlimit:10;}
	.st23{fill:none;stroke:#D9D9D9;stroke-miterlimit:10;stroke-dasharray:6.3999,6.3999;}
	.st24{fill:none;stroke:#D9D9D9;stroke-miterlimit:10;stroke-dasharray:6.2,6.2;}
	.st25{fill:none;stroke:#D9D9D9;stroke-miterlimit:10;stroke-dasharray:6,6;}
	.st26{fill:none;stroke:#D9D9D9;stroke-linecap:round;stroke-linejoin:round;stroke-miterlimit:10;}
	.st27{fill:#9F9F9F;}
	.st28{fill:#4D4D4D;}
	.st29{fill:#FFFFFF;}
	.st30{fill:#999999;}
</style>
<rect x="14" y="8" class="st3" width="32" height="32"/>
<g>
	<path class="st0" d="M30.3,25.5l-0.6,0.6l0.6,0.6c0.2,0.2,0.2,0.4,0,0.6L26.6,31c-0.2,0.2-0.4,0.2-0.6,0l-3-3
		c-0.2-0.2-0.2-0.4,0-0.6l3.7-3.7c0.2-0.2,0.4-0.2,0.6,0l0.6,0.6l0.6-0.6l-0.6-0.6c-0.5-0.5-1.3-0.5-1.8,0l-3.7,3.7
		c-0.5,0.5-0.5,1.3,0,1.8l3,3c0.5,0.5,1.3,0.5,1.8,0l3.7-3.7c0.5-0.5,0.5-1.3,0-1.8L30.3,25.5z"/>
	<path class="st0" d="M34.6,16.4c-0.5-0.5-1.3-0.5-1.8,0L29.1,20c-0.5,0.5-0.5,1.3,0,1.8l0.6,0.6l0.6-0.6l-0.6-0.6
		c-0.2-0.2-0.2-0.4,0-0.6l3.7-3.7c0.2-0.2,0.4-0.2,0.6,0l3,3c0.2,0.2,0.2,0.4,0,0.6l-3.7,3.7c-0.2,0.2-0.4,0.2-0.6,0l-0.6-0.6
		l-0.6,0.6l0.6,0.6c0.5,0.5,1.3,0.5,1.8,0l3.7-3.7c0.5-0.5,0.5-1.3,0-1.8L34.6,16.4z"/>
	<path class="st0" d="M27.6,26.4c0.2,0.2,0.4,0.2,0.6,0l4.3-4.3c0.2-0.2,0.2-0.4,0-0.6c-0.2-0.2-0.4-0.2-0.6,0l-4.3,4.3
		C27.4,26,27.4,26.3,27.6,26.4z"/>
</g>
</svg>
