<?xml version="1.0" encoding="utf-8"?>
<!-- Generator: Adobe Illustrator 22.0.1, SVG Export Plug-In . SVG Version: 6.00 Build 0)  -->
<svg version="1.1" id="图层_1" xmlns="http://www.w3.org/2000/svg" xmlns:xlink="http://www.w3.org/1999/xlink" x="0px" y="0px"
	 viewBox="0 0 60 48" style="enable-background:new 0 0 60 48;" xml:space="preserve">
<style type="text/css">
	.st0{fill:#D9D9D9;}
	.st1{fill:#404040;}
	.st2{fill:#666666;}
	.st3{fill:none;stroke:#D9D9D9;stroke-miterlimit:10;}
	.st4{fill:#333333;}
	.st5{fill:none;stroke:#D9D9D9;stroke-width:2;stroke-miterlimit:10;}
	.st6{fill:none;stroke:#D9D9D9;stroke-width:2;stroke-miterlimit:10;stroke-dasharray:3,3;}
	.st7{fill:none;stroke:#D9D9D9;stroke-width:2;stroke-miterlimit:10;stroke-dasharray:5.6,5.6;}
	.st8{fill:none;stroke:#D9D9D9;stroke-width:2;stroke-miterlimit:10;stroke-dasharray:6.2857,6.2857;}
	.st9{fill:none;stroke:#D9D9D9;stroke-width:2;stroke-miterlimit:10;stroke-dasharray:5.2,5.2;}
	.st10{fill:none;stroke:#D9D9D9;stroke-miterlimit:10;stroke-dasharray:6.2857,6.2857;}
	.st11{fill:none;stroke:#D9D9D9;stroke-miterlimit:10;stroke-dasharray:3,3;}
	.st12{fill:#9C9C9C;}
	.st13{fill:none;stroke:#D9D9D9;stroke-width:2;stroke-miterlimit:10;stroke-dasharray:6;}
	.st14{fill:none;stroke:#D9D9D9;stroke-width:2;stroke-miterlimit:10;stroke-dasharray:5.1429,5.1429;}
	.st15{fill:none;stroke:#D9D9D9;stroke-width:2;stroke-miterlimit:10;stroke-dasharray:7.3333,7.3333;}
	.st16{fill:none;stroke:#D9D9D9;stroke-miterlimit:10;stroke-dasharray:5.1429,5.1429;}
	.st17{fill:none;stroke:#D9D9D9;stroke-miterlimit:10;stroke-dasharray:7.3333,7.3333;}
	.st18{fill:none;stroke:#D9D9D9;stroke-width:0.5;stroke-miterlimit:10;}
	.st19{fill:#D9D9D9;stroke:#333333;stroke-miterlimit:10;}
	.st20{fill:none;stroke:#D9D9D9;stroke-miterlimit:10;stroke-dasharray:4.8,4.8;}
	.st21{fill:none;stroke:#D9D9D9;stroke-width:2;stroke-miterlimit:10;stroke-dasharray:4.8,4.8;}
	.st22{fill:#9C9C9C;stroke:#D9D9D9;stroke-width:0.5;stroke-miterlimit:10;}
	.st23{fill:none;stroke:#D9D9D9;stroke-miterlimit:10;stroke-dasharray:6.3999,6.3999;}
	.st24{fill:none;stroke:#D9D9D9;stroke-miterlimit:10;stroke-dasharray:6.2,6.2;}
	.st25{fill:none;stroke:#D9D9D9;stroke-miterlimit:10;stroke-dasharray:6,6;}
	.st26{fill:none;stroke:#D9D9D9;stroke-linecap:round;stroke-linejoin:round;stroke-miterlimit:10;}
	.st27{fill:#9F9F9F;}
	.st28{fill:#4D4D4D;}
	.st29{fill:#FFFFFF;}
	.st30{fill:#999999;}
</style>
<rect x="9" y="10" class="st3" width="42" height="28"/>
<g>
	<g>
		<circle class="st0" cx="16" cy="31.1" r="1"/>
		<circle class="st0" cx="23" cy="31.1" r="1"/>
		<circle class="st0" cx="30" cy="31.1" r="1"/>
	</g>
	<path class="st0" d="M16,17.9h28c0.6,0,1-0.4,1-1v0c0-0.6-0.4-1-1-1H16c-0.6,0-1,0.4-1,1v0C15,17.4,15.4,17.9,16,17.9z"/>
	<path class="st0" d="M16,25h28c0.6,0,1-0.4,1-1v0c0-0.6-0.4-1-1-1H16c-0.6,0-1,0.4-1,1v0C15,24.6,15.4,25,16,25z"/>
</g>
</svg>
