<?xml version="1.0" encoding="utf-8"?>
<!-- Generator: Adobe Illustrator 22.0.1, SVG Export Plug-In . SVG Version: 6.00 Build 0)  -->
<svg version="1.1" id="图层_1" xmlns="http://www.w3.org/2000/svg" xmlns:xlink="http://www.w3.org/1999/xlink" x="0px" y="0px"
	 viewBox="0 0 60 48" style="enable-background:new 0 0 60 48;" xml:space="preserve">
<style type="text/css">
	.st0{fill:#404040;}
	.st1{fill:#666666;}
	.st2{fill:#333333;}
	.st3{fill:none;stroke:#D9D9D9;stroke-width:2;stroke-miterlimit:10;}
	.st4{fill:none;stroke:#D9D9D9;stroke-width:2;stroke-miterlimit:10;stroke-dasharray:3,3;}
	.st5{fill:none;stroke:#D9D9D9;stroke-width:2;stroke-miterlimit:10;stroke-dasharray:5.6,5.6;}
	.st6{fill:none;stroke:#D9D9D9;stroke-width:2;stroke-miterlimit:10;stroke-dasharray:6.2857,6.2857;}
	.st7{fill:none;stroke:#D9D9D9;stroke-width:2;stroke-miterlimit:10;stroke-dasharray:5.2,5.2;}
	.st8{fill:#9C9C9C;}
	.st9{fill:none;stroke:#D9D9D9;stroke-width:2;stroke-miterlimit:10;stroke-dasharray:6;}
	.st10{fill:none;stroke:#D9D9D9;stroke-width:2;stroke-miterlimit:10;stroke-dasharray:5.1429,5.1429;}
	.st11{fill:none;stroke:#D9D9D9;stroke-width:2;stroke-miterlimit:10;stroke-dasharray:7.3333,7.3333;}
	.st12{fill:#D9D9D9;stroke:#333333;stroke-miterlimit:10;}
	.st13{fill:#D9D9D9;}
	.st14{fill:none;stroke:#D9D9D9;stroke-width:2;stroke-miterlimit:10;stroke-dasharray:4.8,4.8;}
	.st15{fill:none;stroke:#D9D9D9;stroke-width:0.5;stroke-miterlimit:10;}
	.st16{fill:#9C9C9C;stroke:#D9D9D9;stroke-width:0.5;stroke-miterlimit:10;}
	.st17{fill:none;stroke:#D9D9D9;stroke-miterlimit:10;}
	.st18{fill:none;stroke:#D9D9D9;stroke-miterlimit:10;stroke-dasharray:6.3999,6.3999;}
	.st19{fill:none;stroke:#D9D9D9;stroke-miterlimit:10;stroke-dasharray:4.8,4.8;}
	.st20{fill:none;stroke:#D9D9D9;stroke-miterlimit:10;stroke-dasharray:6.2,6.2;}
	.st21{fill:none;stroke:#D9D9D9;stroke-miterlimit:10;stroke-dasharray:6,6;}
	.st22{fill:none;stroke:#D9D9D9;stroke-linecap:round;stroke-linejoin:round;stroke-miterlimit:10;}
	.st23{fill:#9F9F9F;}
	.st24{fill:#4D4D4D;}
	.st25{fill:#FFFFFF;}
</style>
<g>
	<path class="st13" d="M12.5,30.4h10.4c0.3,0,0.5-0.2,0.5-0.5v0c0-0.3-0.2-0.5-0.5-0.5H12.5c-0.3,0-0.5,0.2-0.5,0.5v0
		C12,30.2,12.2,30.4,12.5,30.4z"/>
	<path class="st13" d="M12.5,24.6h9.3c0.3,0,0.5-0.2,0.5-0.5v0c0-0.3-0.2-0.5-0.5-0.5h-9.3c-0.3,0-0.5,0.2-0.5,0.5v0
		C12,24.4,12.2,24.6,12.5,24.6z"/>
	<path class="st13" d="M12.5,18.9h11.8c0.3,0,0.5-0.2,0.5-0.5v0c0-0.3-0.2-0.5-0.5-0.5H12.5c-0.3,0-0.5,0.2-0.5,0.5v0
		C12,18.7,12.2,18.9,12.5,18.9z"/>
	<path class="st13" d="M12.5,36.1h21.7c0.3,0,0.5-0.2,0.5-0.5l0,0c0-0.3-0.2-0.5-0.5-0.5H12.5c-0.3,0-0.5,0.2-0.5,0.5l0,0
		C12,35.9,12.2,36.1,12.5,36.1z"/>
	<path class="st13" d="M12.5,13.1h35c0.3,0,0.5-0.2,0.5-0.5v0c0-0.3-0.2-0.5-0.5-0.5h-35c-0.3,0-0.5,0.2-0.5,0.5v0
		C12,12.9,12.2,13.1,12.5,13.1z"/>
	<g>
		<g>
			<path class="st13" d="M37.4,15.7L37.4,15.7c0.2,0,0.5,0,0.7,0c2.1,0.2,4,1.2,5.4,2.8c1.4,1.6,2,3.7,1.8,5.8
				c-0.4,4.1-3.8,7.3-7.9,7.3c-0.2,0-0.5,0-0.7,0c-4.4-0.4-7.6-4.2-7.2-8.6C29.8,18.9,33.3,15.7,37.4,15.7 M37.4,14.7
				c-4.6,0-8.5,3.5-8.9,8.2c-0.4,4.9,3.2,9.2,8.1,9.7c0.3,0,0.5,0,0.8,0c4.6,0,8.5-3.5,8.9-8.2c0.4-4.9-3.2-9.2-8.1-9.7
				C37.9,14.7,37.6,14.7,37.4,14.7L37.4,14.7z"/>
		</g>
		<path class="st13" d="M47.7,36L47.7,36c-0.3,0.3-0.8,0.2-1-0.1L42.6,31c-0.3-0.3-0.2-0.8,0.1-1l0,0c0.3-0.3,0.8-0.2,1,0.1l4.1,4.9
			C48.1,35.3,48,35.7,47.7,36z"/>
	</g>
</g>
</svg>
