<?xml version="1.0" encoding="utf-8"?>
<!-- Generator: Adobe Illustrator 22.0.1, SVG Export Plug-In . SVG Version: 6.00 Build 0)  -->
<svg version="1.1" id="图层_1" xmlns="http://www.w3.org/2000/svg" xmlns:xlink="http://www.w3.org/1999/xlink" x="0px" y="0px"
	 viewBox="0 0 60 48" style="enable-background:new 0 0 60 48;" xml:space="preserve">
<style type="text/css">
	.st0{fill:#404040;}
	.st1{fill:#666666;}
	.st2{fill:#333333;}
	.st3{fill:none;stroke:#D9D9D9;stroke-width:2;stroke-miterlimit:10;}
	.st4{fill:none;stroke:#D9D9D9;stroke-width:2;stroke-miterlimit:10;stroke-dasharray:3,3;}
	.st5{fill:none;stroke:#D9D9D9;stroke-width:2;stroke-miterlimit:10;stroke-dasharray:5.6,5.6;}
	.st6{fill:none;stroke:#D9D9D9;stroke-width:2;stroke-miterlimit:10;stroke-dasharray:6.2857,6.2857;}
	.st7{fill:none;stroke:#D9D9D9;stroke-width:2;stroke-miterlimit:10;stroke-dasharray:5.2,5.2;}
	.st8{fill:#9C9C9C;}
	.st9{fill:none;stroke:#D9D9D9;stroke-width:2;stroke-miterlimit:10;stroke-dasharray:6;}
	.st10{fill:none;stroke:#D9D9D9;stroke-width:2;stroke-miterlimit:10;stroke-dasharray:5.1429,5.1429;}
	.st11{fill:none;stroke:#D9D9D9;stroke-width:2;stroke-miterlimit:10;stroke-dasharray:7.3333,7.3333;}
	.st12{fill:#D9D9D9;stroke:#333333;stroke-miterlimit:10;}
	.st13{fill:#D9D9D9;}
	.st14{fill:none;stroke:#D9D9D9;stroke-width:2;stroke-miterlimit:10;stroke-dasharray:4.8,4.8;}
	.st15{fill:none;stroke:#D9D9D9;stroke-width:0.5;stroke-miterlimit:10;}
	.st16{fill:#9C9C9C;stroke:#D9D9D9;stroke-width:0.5;stroke-miterlimit:10;}
	.st17{fill:none;stroke:#D9D9D9;stroke-miterlimit:10;}
	.st18{fill:none;stroke:#D9D9D9;stroke-miterlimit:10;stroke-dasharray:6.3999,6.3999;}
	.st19{fill:none;stroke:#D9D9D9;stroke-miterlimit:10;stroke-dasharray:4.8,4.8;}
	.st20{fill:none;stroke:#D9D9D9;stroke-miterlimit:10;stroke-dasharray:6.2,6.2;}
	.st21{fill:none;stroke:#D9D9D9;stroke-miterlimit:10;stroke-dasharray:6,6;}
	.st22{fill:none;stroke:#D9D9D9;stroke-linecap:round;stroke-linejoin:round;stroke-miterlimit:10;}
	.st23{fill:#9F9F9F;}
	.st24{fill:#4D4D4D;}
	.st25{fill:#FFFFFF;}
</style>
<g>
	<path class="st13" d="M16.3,24.5L16.3,24.5c-0.3-0.3-0.3-0.7,0-1c0,0,0,0,0,0v0l4.8-4.8c0.3-0.3,0.7-0.3,1,0c0.3,0.3,0.3,0.7,0,1
		L17.8,24l4.3,4.3c0.3,0.3,0.3,0.7,0,1c0,0,0,0,0,0c-0.3,0.3-0.7,0.3-1,0L16.3,24.5L16.3,24.5z"/>
	<path class="st13" d="M31.5,15.9c0.1-0.4,0.5-0.6,0.8-0.5s0.6,0.5,0.5,0.8c0,0,0,0,0,0l-4.2,15.8c-0.1,0.4-0.5,0.6-0.8,0.5
		c-0.4-0.1-0.6-0.5-0.5-0.8c0,0,0,0,0,0L31.5,15.9z"/>
	<path class="st13" d="M43.7,24.5l-4.8,4.8c-0.3,0.3-0.7,0.3-1,0c-0.3-0.3-0.3-0.7,0-1c0,0,0,0,0,0l4.3-4.3l-4.3-4.3
		c-0.3-0.3-0.3-0.7,0-1s0.7-0.3,1,0l0,0l4.8,4.8l0,0v0C43.9,23.8,43.9,24.2,43.7,24.5C43.7,24.5,43.7,24.5,43.7,24.5L43.7,24.5z"/>
</g>
</svg>
