<?xml version="1.0" encoding="utf-8"?>
<!-- Generator: Adobe Illustrator 22.0.1, SVG Export Plug-In . SVG Version: 6.00 Build 0)  -->
<svg version="1.1" id="图层_1" xmlns="http://www.w3.org/2000/svg" xmlns:xlink="http://www.w3.org/1999/xlink" x="0px" y="0px"
	 viewBox="0 0 60 48" style="enable-background:new 0 0 60 48;" xml:space="preserve">
<style type="text/css">
	.st0{fill:#404040;}
	.st1{fill:#666666;}
	.st2{fill:#333333;}
	.st3{fill:none;stroke:#D9D9D9;stroke-width:2;stroke-miterlimit:10;}
	.st4{fill:none;stroke:#D9D9D9;stroke-width:2;stroke-miterlimit:10;stroke-dasharray:3,3;}
	.st5{fill:none;stroke:#D9D9D9;stroke-width:2;stroke-miterlimit:10;stroke-dasharray:5.6,5.6;}
	.st6{fill:none;stroke:#D9D9D9;stroke-width:2;stroke-miterlimit:10;stroke-dasharray:6.2857,6.2857;}
	.st7{fill:none;stroke:#D9D9D9;stroke-width:2;stroke-miterlimit:10;stroke-dasharray:5.2,5.2;}
	.st8{fill:#9C9C9C;}
	.st9{fill:none;stroke:#D9D9D9;stroke-width:2;stroke-miterlimit:10;stroke-dasharray:6;}
	.st10{fill:none;stroke:#D9D9D9;stroke-width:2;stroke-miterlimit:10;stroke-dasharray:5.1429,5.1429;}
	.st11{fill:none;stroke:#D9D9D9;stroke-width:2;stroke-miterlimit:10;stroke-dasharray:7.3333,7.3333;}
	.st12{fill:#D9D9D9;stroke:#333333;stroke-miterlimit:10;}
	.st13{fill:#D9D9D9;}
	.st14{fill:none;stroke:#D9D9D9;stroke-width:2;stroke-miterlimit:10;stroke-dasharray:4.8,4.8;}
	.st15{fill:none;stroke:#D9D9D9;stroke-width:0.5;stroke-miterlimit:10;}
	.st16{fill:#9C9C9C;stroke:#D9D9D9;stroke-width:0.5;stroke-miterlimit:10;}
	.st17{fill:none;stroke:#D9D9D9;stroke-miterlimit:10;}
	.st18{fill:none;stroke:#D9D9D9;stroke-miterlimit:10;stroke-dasharray:6.3999,6.3999;}
	.st19{fill:none;stroke:#D9D9D9;stroke-miterlimit:10;stroke-dasharray:4.8,4.8;}
	.st20{fill:none;stroke:#D9D9D9;stroke-miterlimit:10;stroke-dasharray:6.2,6.2;}
	.st21{fill:none;stroke:#D9D9D9;stroke-miterlimit:10;stroke-dasharray:6,6;}
	.st22{fill:none;stroke:#D9D9D9;stroke-linecap:round;stroke-linejoin:round;stroke-miterlimit:10;}
	.st23{fill:#9F9F9F;}
	.st24{fill:#4D4D4D;}
	.st25{fill:#FFFFFF;}
</style>
<path class="st13" d="M7.1,21.2l3.6,3.6c0.1,0.1,0.2,0.1,0.3,0c0.1-0.1,0.1-0.2,0-0.3L7.5,21l3.4-3.4c0.1-0.1,0.1-0.2,0-0.3
	c-0.1-0.1-0.2-0.1-0.3,0l-3.6,3.6C7,20.9,7,21,7,21C7,21.1,7,21.1,7.1,21.2L7.1,21.2z"/>
<path class="st13" d="M52.9,21.2l-3.6,3.6c-0.1,0.1-0.2,0.1-0.3,0c-0.1-0.1-0.1-0.2,0-0.3l3.4-3.4l-3.4-3.4c-0.1-0.1-0.1-0.2,0-0.3
	c0.1-0.1,0.2-0.1,0.3,0l3.6,3.6c0,0,0.1,0.1,0.1,0.2C53,21.1,53,21.1,52.9,21.2L52.9,21.2z"/>
<g>
	<g>
		<g>
			<path class="st13" d="M41.7,12.2c0.6,0,1,0.5,1,1v15.6c0,0.6-0.5,1-1,1H18.3c-0.6,0-1-0.5-1-1V13.3c0-0.6,0.5-1,1-1H41.7
				 M41.7,11H18.3c-1.2,0-2.2,1-2.2,2.2v15.6c0,1.2,1,2.2,2.2,2.2h23.3c1.2,0,2.2-1,2.2-2.2V13.3C43.9,12,42.9,11,41.7,11L41.7,11z"
				/>
		</g>
		<g>
			<path class="st13" d="M43.4,28.6l-6.8-9c-0.6-0.7-1.4-1.2-2.3-1.2h0c-0.9,0-1.8,0.4-2.3,1.2l-2.6,3.5c-0.3,0.4-0.7,0.6-1.1,0.6
				c-0.4,0-0.9-0.1-1.2-0.5l-0.5-0.5c-0.6-0.6-1.4-0.9-2.2-0.9c-0.8,0-1.6,0.4-2.1,1l-5.1,5.9C17,28.7,17,29.3,17,29.1v1l0.6-0.2
				c0,0,0.3,0.2,0.3,0.2c0,0,0,0,0.1-0.1l5.3-6.1c0.3-0.3,0.7-0.5,1.1-0.5c0.4,0,0.8,0.2,1.1,0.5l0.5,0.5c0.6,0.6,1.4,0.9,2.3,0.9
				c0.9-0.1,1.7-0.5,2.2-1.2l2.6-3.5c0.3-0.4,0.7-0.6,1.2-0.6h0c0.5,0,0.9,0.2,1.2,0.6l7.1,9.4c0,0,0.1,0.1,0.1,0.1"/>
		</g>
	</g>
	<circle class="st17" cx="24.1" cy="16.6" r="1.9"/>
</g>
</svg>
