<?xml version="1.0" encoding="utf-8"?>
<!-- Generator: Adobe Illustrator 22.0.1, SVG Export Plug-In . SVG Version: 6.00 Build 0)  -->
<svg version="1.1" id="图层_1" xmlns="http://www.w3.org/2000/svg" xmlns:xlink="http://www.w3.org/1999/xlink" x="0px" y="0px"
	 viewBox="0 0 60 48" style="enable-background:new 0 0 60 48;" xml:space="preserve">
<style type="text/css">
	.st0{fill:#404040;}
	.st1{fill:#666666;}
	.st2{fill:#333333;}
	.st3{fill:none;stroke:#D9D9D9;stroke-width:2;stroke-miterlimit:10;}
	.st4{fill:none;stroke:#D9D9D9;stroke-width:2;stroke-miterlimit:10;stroke-dasharray:3,3;}
	.st5{fill:none;stroke:#D9D9D9;stroke-width:2;stroke-miterlimit:10;stroke-dasharray:5.6,5.6;}
	.st6{fill:none;stroke:#D9D9D9;stroke-width:2;stroke-miterlimit:10;stroke-dasharray:6.2857,6.2857;}
	.st7{fill:none;stroke:#D9D9D9;stroke-width:2;stroke-miterlimit:10;stroke-dasharray:5.2,5.2;}
	.st8{fill:#9C9C9C;}
	.st9{fill:none;stroke:#D9D9D9;stroke-width:2;stroke-miterlimit:10;stroke-dasharray:6;}
	.st10{fill:none;stroke:#D9D9D9;stroke-width:2;stroke-miterlimit:10;stroke-dasharray:5.1429,5.1429;}
	.st11{fill:none;stroke:#D9D9D9;stroke-width:2;stroke-miterlimit:10;stroke-dasharray:7.3333,7.3333;}
	.st12{fill:#D9D9D9;stroke:#333333;stroke-miterlimit:10;}
	.st13{fill:#D9D9D9;}
	.st14{fill:none;stroke:#D9D9D9;stroke-width:2;stroke-miterlimit:10;stroke-dasharray:4.8,4.8;}
	.st15{fill:none;stroke:#D9D9D9;stroke-width:0.5;stroke-miterlimit:10;}
	.st16{fill:#9C9C9C;stroke:#D9D9D9;stroke-width:0.5;stroke-miterlimit:10;}
	.st17{fill:none;stroke:#D9D9D9;stroke-miterlimit:10;}
	.st18{fill:none;stroke:#D9D9D9;stroke-miterlimit:10;stroke-dasharray:6.3999,6.3999;}
	.st19{fill:none;stroke:#D9D9D9;stroke-miterlimit:10;stroke-dasharray:4.8,4.8;}
	.st20{fill:none;stroke:#D9D9D9;stroke-miterlimit:10;stroke-dasharray:6.2,6.2;}
	.st21{fill:none;stroke:#D9D9D9;stroke-miterlimit:10;stroke-dasharray:6,6;}
	.st22{fill:none;stroke:#D9D9D9;stroke-linecap:round;stroke-linejoin:round;stroke-miterlimit:10;}
	.st23{fill:#9F9F9F;}
	.st24{fill:#4D4D4D;}
	.st25{fill:#FFFFFF;}
</style>
<g>
	<g>
		<g>
			<path class="st13" d="M34.3,12.7c0.5,0,0.9,0.4,0.9,0.9v14.8c0,0.5-0.4,0.9-0.9,0.9H12.1c-0.5,0-0.9-0.4-0.9-0.9V13.6
				c0-0.5,0.4-0.9,0.9-0.9H34.3 M34.3,11.5H12.1c-1.2,0-2.1,0.9-2.1,2.1v14.8c0,1.2,1,2.1,2.1,2.1h22.2c1.2,0,2.1-0.9,2.1-2.1V13.6
				C36.4,12.5,35.4,11.5,34.3,11.5L34.3,11.5z"/>
		</g>
		<g>
			<path class="st13" d="M35.9,28.2l-6.5-8.6c-0.5-0.7-1.3-1.1-2.2-1.1h0c-0.9,0-1.7,0.4-2.2,1.1L22.5,23c-0.2,0.3-0.6,0.5-1.1,0.6
				c-0.4,0-0.8-0.1-1.1-0.4l-0.4-0.4c-0.5-0.6-1.3-0.9-2.1-0.8c-0.8,0-1.5,0.4-2,1l-4.8,5.6c0-0.2-0.1,0.5-0.1,0.3v0.9l0.6-0.2
				c0,0,0.3,0.2,0.3,0.2c0,0,0,0,0-0.1l5-5.8c0.3-0.3,0.6-0.5,1-0.5c0.4,0,0.8,0.1,1.1,0.4l0.4,0.4c0.6,0.6,1.4,0.9,2.2,0.8
				c0.8-0.1,1.6-0.5,2.1-1.1l2.5-3.3c0.3-0.4,0.7-0.6,1.1-0.6h0c0.5,0,0.9,0.2,1.1,0.6l6.8,8.9c0,0,0.1,0.1,0.1,0.1"/>
		</g>
	</g>
	<g>
		<g>
			<path class="st13" d="M49.5,11.8c0.1,0,0.2,0.1,0.2,0.2v3.4c0,0.1-0.1,0.2-0.2,0.2h-5.1c-0.1,0-0.2-0.1-0.2-0.2V12
				c0-0.1,0.1-0.2,0.2-0.2H49.5 M49.5,11.5h-5.1c-0.3,0-0.5,0.2-0.5,0.5v3.4c0,0.3,0.2,0.5,0.5,0.5h5.1c0.3,0,0.5-0.2,0.5-0.5V12
				C50,11.7,49.8,11.5,49.5,11.5L49.5,11.5z"/>
		</g>
		<g>
			<path class="st13" d="M49.9,15.4l-1.5-2c-0.1-0.2-0.3-0.3-0.5-0.3h0c-0.2,0-0.4,0.1-0.5,0.3l-0.6,0.8c-0.1,0.1-0.1,0.1-0.2,0.1
				c-0.1,0-0.2,0-0.3-0.1l-0.1-0.1c-0.1-0.1-0.3-0.2-0.5-0.2c-0.2,0-0.4,0.1-0.5,0.2l-1.1,1.3c0,0,0,0.1,0,0.1v0.2l0.1,0
				c0,0,0.1,0,0.1,0c0,0,0,0,0,0l1.2-1.4c0.1-0.1,0.1-0.1,0.2-0.1c0.1,0,0.2,0,0.2,0.1l0.1,0.1c0.1,0.1,0.3,0.2,0.5,0.2
				c0.2,0,0.4-0.1,0.5-0.3l0.6-0.8c0.1-0.1,0.2-0.1,0.3-0.1h0c0.1,0,0.2,0,0.3,0.1l1.6,2.1c0,0,0,0,0,0"/>
		</g>
	</g>
	<g>
		<g>
			<path class="st13" d="M49.5,19.1c0.1,0,0.2,0.1,0.2,0.2v3.4c0,0.1-0.1,0.2-0.2,0.2h-5.1c-0.1,0-0.2-0.1-0.2-0.2v-3.4
				c0-0.1,0.1-0.2,0.2-0.2H49.5 M49.5,18.8h-5.1c-0.3,0-0.5,0.2-0.5,0.5v3.4c0,0.3,0.2,0.5,0.5,0.5h5.1c0.3,0,0.5-0.2,0.5-0.5v-3.4
				C50,19,49.8,18.8,49.5,18.8L49.5,18.8z"/>
		</g>
		<g>
			<path class="st13" d="M49.9,22.7l-1.5-2c-0.1-0.2-0.3-0.3-0.5-0.3h0c-0.2,0-0.4,0.1-0.5,0.3l-0.6,0.8c-0.1,0.1-0.1,0.1-0.2,0.1
				c-0.1,0-0.2,0-0.3-0.1l-0.1-0.1c-0.1-0.1-0.3-0.2-0.5-0.2c-0.2,0-0.4,0.1-0.5,0.2l-1.1,1.3c0,0,0,0.1,0,0.1V23l0.1,0
				c0,0,0.1,0,0.1,0c0,0,0,0,0,0l1.2-1.4c0.1-0.1,0.1-0.1,0.2-0.1c0.1,0,0.2,0,0.2,0.1l0.1,0.1c0.1,0.1,0.3,0.2,0.5,0.2
				c0.2,0,0.4-0.1,0.5-0.3l0.6-0.8c0.1-0.1,0.2-0.1,0.3-0.1h0c0.1,0,0.2,0,0.3,0.1l1.6,2.1c0,0,0,0,0,0"/>
		</g>
	</g>
	<g>
		<g>
			<path class="st13" d="M49.5,26.4c0.1,0,0.2,0.1,0.2,0.2V30c0,0.1-0.1,0.2-0.2,0.2h-5.1c-0.1,0-0.2-0.1-0.2-0.2v-3.4
				c0-0.1,0.1-0.2,0.2-0.2H49.5 M49.5,26.1h-5.1c-0.3,0-0.5,0.2-0.5,0.5V30c0,0.3,0.2,0.5,0.5,0.5h5.1c0.3,0,0.5-0.2,0.5-0.5v-3.4
				C50,26.3,49.8,26.1,49.5,26.1L49.5,26.1z"/>
		</g>
		<g>
			<path class="st13" d="M49.9,30l-1.5-2c-0.1-0.2-0.3-0.3-0.5-0.3h0c-0.2,0-0.4,0.1-0.5,0.3l-0.6,0.8c-0.1,0.1-0.1,0.1-0.2,0.1
				c-0.1,0-0.2,0-0.3-0.1l-0.1-0.1c-0.1-0.1-0.3-0.2-0.5-0.2c-0.2,0-0.4,0.1-0.5,0.2L44.1,30c0,0,0,0.1,0,0.1v0.2l0.1,0
				c0,0,0.1,0,0.1,0c0,0,0,0,0,0l1.2-1.4c0.1-0.1,0.1-0.1,0.2-0.1c0.1,0,0.2,0,0.2,0.1L46,29c0.1,0.1,0.3,0.2,0.5,0.2
				c0.2,0,0.4-0.1,0.5-0.3l0.6-0.8c0.1-0.1,0.2-0.1,0.3-0.1h0c0.1,0,0.2,0,0.3,0.1l1.6,2.1c0,0,0,0,0,0"/>
		</g>
	</g>
</g>
</svg>
