<?xml version="1.0" encoding="utf-8"?>
<!-- Generator: Adobe Illustrator 22.0.1, SVG Export Plug-In . SVG Version: 6.00 Build 0)  -->
<svg version="1.1" id="图层_1" xmlns="http://www.w3.org/2000/svg" xmlns:xlink="http://www.w3.org/1999/xlink" x="0px" y="0px"
	 viewBox="0 0 60 48" style="enable-background:new 0 0 60 48;" xml:space="preserve">
<style type="text/css">
	.st0{fill:#404040;}
	.st1{fill:#666666;}
	.st2{fill:#333333;}
	.st3{fill:none;stroke:#D9D9D9;stroke-width:2;stroke-miterlimit:10;}
	.st4{fill:none;stroke:#D9D9D9;stroke-width:2;stroke-miterlimit:10;stroke-dasharray:3,3;}
	.st5{fill:none;stroke:#D9D9D9;stroke-width:2;stroke-miterlimit:10;stroke-dasharray:5.6,5.6;}
	.st6{fill:none;stroke:#D9D9D9;stroke-width:2;stroke-miterlimit:10;stroke-dasharray:6.2857,6.2857;}
	.st7{fill:none;stroke:#D9D9D9;stroke-width:2;stroke-miterlimit:10;stroke-dasharray:5.2,5.2;}
	.st8{fill:#9C9C9C;}
	.st9{fill:none;stroke:#D9D9D9;stroke-width:2;stroke-miterlimit:10;stroke-dasharray:6;}
	.st10{fill:none;stroke:#D9D9D9;stroke-width:2;stroke-miterlimit:10;stroke-dasharray:5.1429,5.1429;}
	.st11{fill:none;stroke:#D9D9D9;stroke-width:2;stroke-miterlimit:10;stroke-dasharray:7.3333,7.3333;}
	.st12{fill:#D9D9D9;stroke:#333333;stroke-miterlimit:10;}
	.st13{fill:#D9D9D9;}
	.st14{fill:none;stroke:#D9D9D9;stroke-width:2;stroke-miterlimit:10;stroke-dasharray:4.8,4.8;}
	.st15{fill:none;stroke:#D9D9D9;stroke-width:0.5;stroke-miterlimit:10;}
	.st16{fill:#9C9C9C;stroke:#D9D9D9;stroke-width:0.5;stroke-miterlimit:10;}
	.st17{fill:none;stroke:#D9D9D9;stroke-miterlimit:10;}
	.st18{fill:none;stroke:#D9D9D9;stroke-miterlimit:10;stroke-dasharray:6.3999,6.3999;}
	.st19{fill:none;stroke:#D9D9D9;stroke-miterlimit:10;stroke-dasharray:4.8,4.8;}
	.st20{fill:none;stroke:#D9D9D9;stroke-miterlimit:10;stroke-dasharray:6.2,6.2;}
	.st21{fill:none;stroke:#D9D9D9;stroke-miterlimit:10;stroke-dasharray:6,6;}
	.st22{fill:none;stroke:#D9D9D9;stroke-linecap:round;stroke-linejoin:round;stroke-miterlimit:10;}
	.st23{fill:#9F9F9F;}
	.st24{fill:#4D4D4D;}
	.st25{fill:#FFFFFF;}
</style>
<g>
	<g>
		<g>
			<polyline class="st17" points="49,36 49,39 46,39 			"/>
			<line class="st18" x1="39.6" y1="39" x2="17.2" y2="39"/>
			<polyline class="st17" points="14,39 11,39 11,36 			"/>
			<line class="st19" x1="11" y1="31.2" x2="11" y2="14.4"/>
			<polyline class="st17" points="11,12 11,9 14,9 			"/>
			<line class="st18" x1="20.4" y1="9" x2="42.8" y2="9"/>
			<polyline class="st17" points="46,9 49,9 49,12 			"/>
			<line class="st19" x1="49" y1="16.8" x2="49" y2="33.6"/>
		</g>
	</g>
	<g>
		<g>
			<path class="st13" d="M21.8,19.4c-0.2,0-0.4,0.1-0.6,0.3c-0.2,0.2-0.3,0.4-0.3,0.6c0,0.2,0.1,0.4,0.3,0.6
				c0.2,0.2,0.4,0.3,0.6,0.3c0.2,0,0.4-0.1,0.6-0.3c0.2-0.2,0.2-0.4,0.2-0.6c0-0.2-0.1-0.4-0.2-0.6C22.3,19.5,22.1,19.4,21.8,19.4
				L21.8,19.4z"/>
		</g>
		<g>
			<path class="st13" d="M31.9,16.4H20.7c-1.5,0-2.7,1.2-2.7,2.7v9.7c0,1.5,1.2,2.7,2.7,2.7h11.2c1.5,0,2.7-1.2,2.7-2.7v-0.8
				l4.7,2.3c0.3,0.2,0.7,0.3,1,0.3c0.3,0,0.6-0.1,0.9-0.2c0.5-0.3,0.8-1,0.8-1.7v-9.2c0-0.8-0.3-1.4-0.8-1.7
				c-0.3-0.2-0.6-0.3-0.9-0.3c-0.3,0-0.7,0.1-1,0.2l-4.7,2.2v-0.8C34.6,17.7,33.4,16.4,31.9,16.4L31.9,16.4z M20.7,30.3
				c-0.8,0-1.4-0.7-1.4-1.5v-9.7c0-0.8,0.6-1.5,1.4-1.5h11.2c0.8,0,1.4,0.7,1.4,1.5v9.7c0,0.8-0.6,1.5-1.4,1.5H20.7L20.7,30.3z
				 M40.3,29.4c-0.1,0-0.3,0-0.5-0.1l-5.2-2.5v-5.4l5.2-2.5c0.2-0.1,0.3-0.1,0.5-0.1c0.1,0,0.2,0,0.2,0.1c0.2,0.1,0.3,0.3,0.3,0.7
				v9.2c0,0.3-0.1,0.6-0.3,0.7C40.4,29.3,40.4,29.4,40.3,29.4L40.3,29.4z"/>
		</g>
	</g>
</g>
</svg>
